<!DOCTYPE svg PUBLIC "-//W3C//DTD SVG 1.1//EN" "http://www.w3.org/Graphics/SVG/1.1/DTD/svg11.dtd">
<svg xmlns="http://www.w3.org/2000/svg" xmlns:xlink="http://www.w3.org/1999/xlink" width="211px" height="144px" version="1.1"><defs><clipPath id="mx-clip-36-28-161-29-0"><rect x="36" y="28" width="161" height="29"/></clipPath><clipPath id="mx-clip-36-60-91-25-0"><rect x="36" y="60" width="91" height="25"/></clipPath><clipPath id="mx-clip-36-86-91-25-0"><rect x="36" y="86" width="91" height="25"/></clipPath><clipPath id="mx-clip-36-112-91-25-0"><rect x="36" y="112" width="91" height="25"/></clipPath><clipPath id="mx-clip-6-28-21-29-0"><rect x="6" y="28" width="21" height="29"/></clipPath><clipPath id="mx-clip-142-60-55-25-0"><rect x="142" y="60" width="55" height="25"/></clipPath><clipPath id="mx-clip-142-85-55-25-0"><rect x="142" y="85" width="55" height="25"/></clipPath><clipPath id="mx-clip-142-112-55-25-0"><rect x="142" y="112" width="55" height="25"/></clipPath><clipPath id="mx-clip-142-35-55-25-0"><rect x="142" y="35" width="55" height="25"/></clipPath></defs><g transform="translate(0.5,0.5)"><rect x="2" y="2" width="200" height="131" fill="#ffffff" stroke="#6c8ebf" pointer-events="none"/><path d="M 2 28 L 2 2 L 202 2 L 202 28 Z" fill="#a9c4eb" stroke="#6c8ebf" stroke-miterlimit="10" pointer-events="none"/><g fill="#000000" font-family="Helvetica" font-weight="bold" text-anchor="middle" font-size="16px"><text x="101.3" y="20.9">films</text></g><path d="M 2 28 M 202 28 M 202 58 L 2 58" fill="none" stroke="#000000" stroke-miterlimit="10" pointer-events="none"/><g fill="#000000" font-family="Helvetica" font-weight="bold" text-decoration="underline" clip-path="url(#mx-clip-36-28-161-29-0)" font-size="13px"><text x="37.9" y="46.8">id</text></g><path d="M 2 55 M 132 55 M 132 81 M 2 81" fill="none" stroke="#000000" stroke-miterlimit="10" pointer-events="none"/><g fill="#000000" font-family="Helvetica" clip-path="url(#mx-clip-36-60-91-25-0)" font-size="13px"><text x="37.9" y="73.9">release_year</text></g><path d="M 2 81 M 132 81 M 132 107 M 2 107" fill="none" stroke="#000000" stroke-miterlimit="10" pointer-events="none"/><g fill="#000000" font-family="Helvetica" clip-path="url(#mx-clip-36-86-91-25-0)" font-size="13px"><text x="37.9" y="99.9">category_id</text></g><path d="M 2 107 M 132 107 M 132 133 M 2 133" fill="none" stroke="#000000" stroke-miterlimit="10" pointer-events="none"/><g fill="#000000" font-family="Helvetica" clip-path="url(#mx-clip-36-112-91-25-0)" font-size="13px"><text x="37.9" y="125.9">rating</text></g><path d="M 2 28 M 32 28 L 32 58 M 2 58" fill="none" stroke="#000000" stroke-miterlimit="10" pointer-events="none"/><g fill="#000000" font-family="Helvetica" clip-path="url(#mx-clip-6-28-21-29-0)" font-size="13px"><text x="7.9" y="46.8">PK</text></g><path d="M 2 58 M 32 58 L 32 84 M 2 84" fill="none" stroke="#000000" stroke-miterlimit="10" pointer-events="none"/><path d="M 2 55 M 32 55 L 32 81 M 2 81" fill="none" stroke="#000000" stroke-miterlimit="10" pointer-events="none"/><path d="M 2 81 M 32 81 L 32 107 M 2 107" fill="none" stroke="#000000" stroke-miterlimit="10" pointer-events="none"/><path d="M 2 107 M 32 107 L 32 133 M 2 133" fill="none" stroke="#000000" stroke-miterlimit="10" pointer-events="none"/><path d="M 142 55 M 202 55 M 202 81 M 142 81" fill="none" stroke="#000000" stroke-miterlimit="10" pointer-events="none"/><g fill="#000000" font-family="Helvetica" font-style="italic" clip-path="url(#mx-clip-142-60-55-25-0)" font-size="13px"><text x="143.9" y="73.9">integer</text></g><path d="M 142 80 M 202 80 M 202 106 M 142 106" fill="none" stroke="#000000" stroke-miterlimit="10" pointer-events="none"/><g fill="#000000" font-family="Helvetica" font-style="italic" clip-path="url(#mx-clip-142-85-55-25-0)" font-size="13px"><text x="143.9" y="98.9">integer</text></g><path d="M 142 107 M 202 107 M 202 133 M 142 133" fill="none" stroke="#000000" stroke-miterlimit="10" pointer-events="none"/><g fill="#000000" font-family="Helvetica" font-style="italic" clip-path="url(#mx-clip-142-112-55-25-0)" font-size="13px"><text x="143.9" y="125.9">numeric</text></g><path d="M 142 30 M 202 30 M 202 56 M 142 56" fill="none" stroke="#000000" stroke-miterlimit="10" pointer-events="none"/><g fill="#000000" font-family="Helvetica" font-style="italic" clip-path="url(#mx-clip-142-35-55-25-0)" font-size="13px"><text x="143.9" y="48.9">integer</text></g></g></svg>